<svg xmlns="http://www.w3.org/2000/svg" width="17.499" height="17.5" viewBox="0 0 17.499 17.5">
  <g id="Icon_feather-edit" data-name="Icon feather-edit" transform="translate(0.75 0.75)">
    <path id="Path_6" data-name="Path 6" d="M15.723,21.063H4.59a2.343,2.343,0,0,1-2.34-2.34V7.59A2.343,2.343,0,0,1,4.59,5.25h5.566a.75.75,0,0,1,0,1.5H4.59a.841.841,0,0,0-.84.84V18.723a.841.841,0,0,0,.84.84H15.723a.841.841,0,0,0,.84-.84V13.157a.75.75,0,1,1,1.5,0v5.566A2.343,2.343,0,0,1,15.723,21.063Z" transform="translate(-3 -4.313)" fill="#393c46"/>
    <path id="Path_7" data-name="Path 7" d="M21.542,2.068a2.437,2.437,0,0,1,1.723,4.16l-7.554,7.554a.75.75,0,0,1-.348.2l-3.181.8a.75.75,0,0,1-.91-.91l.8-3.181a.75.75,0,0,1,.2-.348l7.554-7.554A2.421,2.421,0,0,1,21.542,2.068ZM14.8,12.575,22.2,5.167A.937.937,0,1,0,20.88,3.842L13.472,11.25l-.442,1.766Z" transform="translate(-7.229 -2.818)" fill="#393c46"/>
  </g>
</svg>
